<svg xmlns="http://www.w3.org/2000/svg" width="20" height="14" fill="none"><path fill="#000" fill-rule="evenodd" d="M19.865 2.033c0-.633-.477-1.146-1.066-1.146h-1.067c-.59 0-1.067.513-1.067 1.146v9.934c0 .633.478 1.146 1.067 1.146h1.067c.589 0 1.066-.513 1.066-1.146zm-7.434 1.299h1.067c.589 0 1.066.526 1.066 1.174v7.433c0 .649-.477 1.174-1.066 1.174H12.43c-.59 0-1.067-.525-1.067-1.174V4.506c0-.649.478-1.174 1.067-1.174M8.099 5.981H7.033c-.59 0-1.067.532-1.067 1.189v4.754c0 .657.478 1.19 1.067 1.19h1.066c.59 0 1.067-.533 1.067-1.19V7.17c0-.657-.478-1.189-1.067-1.189M2.8 8.426H1.731c-.59 0-1.067.525-1.067 1.172v2.343c0 .647.478 1.172 1.067 1.172h1.066c.59 0 1.067-.524 1.067-1.172V9.598c0-.647-.477-1.172-1.067-1.172" clip-rule="evenodd"/></svg>