<svg xmlns="http://www.w3.org/2000/svg" width="18" height="14" fill="none"><path fill="#000" fill-rule="evenodd" d="M9.436 3.302c2.488 0 4.88.922 6.682 2.576a.355.355 0 0 0 .486-.004l1.298-1.263a.34.34 0 0 0-.003-.494C13.168-.258 5.704-.258.973 4.117a.34.34 0 0 0-.003.494l1.298 1.263c.133.13.35.132.486.004 1.803-1.654 4.195-2.576 6.682-2.576m-.003 4.22c1.357 0 2.666.512 3.672 1.436.136.131.35.129.483-.006l1.288-1.32a.367.367 0 0 0-.005-.518 7.9 7.9 0 0 0-10.873 0 .367.367 0 0 0-.005.519L5.28 8.952a.34.34 0 0 0 .483.006 5.43 5.43 0 0 1 3.67-1.436m2.524 2.794a.4.4 0 0 1-.102.28l-2.177 2.456a.32.32 0 0 1-.241.112.32.32 0 0 1-.242-.112l-2.177-2.455a.4.4 0 0 1-.102-.281.4.4 0 0 1 .113-.276c1.39-1.314 3.426-1.314 4.816 0 .07.07.11.17.112.276" clip-rule="evenodd"/></svg>