<svg width="20" height="14" viewBox="0 0 20 14" fill="none" xmlns="http://www.w3.org/2000/svg">
<path fill-rule="evenodd" clip-rule="evenodd" d="M19.8652 2.03295C19.8652 1.3999 19.3876 0.886719 18.7985 0.886719H17.7318C17.1427 0.886719 16.6652 1.3999 16.6652 2.03295V11.9669C16.6652 12.5999 17.1427 13.1131 17.7318 13.1131H18.7985C19.3876 13.1131 19.8652 12.5999 19.8652 11.9669V2.03295ZM12.431 3.332H13.4977C14.0868 3.332 14.5644 3.8575 14.5644 4.50574V11.9394C14.5644 12.5876 14.0868 13.1131 13.4977 13.1131H12.431C11.8419 13.1131 11.3644 12.5876 11.3644 11.9394V4.50574C11.3644 3.8575 11.8419 3.332 12.431 3.332ZM8.09928 5.98105H7.03261C6.44351 5.98105 5.96594 6.51324 5.96594 7.16973V11.9244C5.96594 12.5809 6.44351 13.1131 7.03261 13.1131H8.09928C8.68838 13.1131 9.16594 12.5809 9.16594 11.9244V7.16973C9.16594 6.51324 8.68838 5.98105 8.09928 5.98105ZM2.79849 8.42634H1.73183C1.14272 8.42634 0.665161 8.95093 0.665161 9.59804V11.9414C0.665161 12.5885 1.14272 13.1131 1.73183 13.1131H2.79849C3.3876 13.1131 3.86516 12.5885 3.86516 11.9414V9.59804C3.86516 8.95093 3.3876 8.42634 2.79849 8.42634Z" fill="black"/>
</svg>
