<svg width="18" height="14" viewBox="0 0 18 14" fill="none" xmlns="http://www.w3.org/2000/svg">
<path fill-rule="evenodd" clip-rule="evenodd" d="M9.43641 3.30222C11.9235 3.30232 14.3155 4.22441 16.118 5.87789C16.2538 6.00554 16.4707 6.00393 16.6044 5.87428L17.9019 4.61081C17.9696 4.54505 18.0073 4.45597 18.0068 4.36329C18.0062 4.27061 17.9674 4.18197 17.8989 4.11697C13.1679 -0.257741 5.70418 -0.257741 0.973168 4.11697C0.904636 4.18192 0.865752 4.27054 0.86512 4.36322C0.864488 4.4559 0.902161 4.545 0.969801 4.61081L2.26767 5.87428C2.40126 6.00413 2.61839 6.00574 2.75404 5.87789C4.55678 4.2243 6.94906 3.30221 9.43641 3.30222ZM9.43306 7.5225C10.7904 7.52241 12.0993 8.03415 13.1054 8.95828C13.2415 9.08943 13.4558 9.08659 13.5885 8.95187L14.8758 7.63256C14.9436 7.56336 14.9812 7.46948 14.9802 7.37193C14.9792 7.27438 14.9397 7.1813 14.8706 7.11351C11.8067 4.22266 7.06199 4.22266 3.99816 7.11351C3.92895 7.1813 3.88947 7.27443 3.88856 7.37201C3.88765 7.46959 3.9254 7.56346 3.99333 7.63256L5.28024 8.95187C5.41289 9.08659 5.62726 9.08943 5.76334 8.95828C6.76879 8.03476 8.07664 7.52307 9.43306 7.5225ZM11.9575 10.316C11.9594 10.4214 11.9223 10.523 11.855 10.5968L9.67838 13.0515C9.61458 13.1236 9.52758 13.1642 9.43681 13.1642C9.34604 13.1642 9.25905 13.1236 9.19524 13.0515L7.01822 10.5968C6.95096 10.5229 6.91397 10.4213 6.91596 10.316C6.91796 10.2106 6.95877 10.1108 7.02875 10.0402C8.41885 8.72634 10.4548 8.72634 11.8449 10.0402C11.9148 10.1109 11.9556 10.2107 11.9575 10.316Z" fill="black"/>
</svg>
